# xmcd
#
# Track frame offsets: 
#        150
#        20762
#        32074
#        49377
#        66987
#        88045
#        109569
#        125493
#        141668
#        158762
#        175856
#        194496
#        215770
#        230725
#        246565
#        259702
#
# Disc length: 3739 seconds
#
# Revision: 7
# Processed by: cddbd v1.5.2PL0 Copyright (c) Steve Scherf et al.
# Submitted via: ExactAudioCopyFreeDBPlugin 1.0
#
DISCID=fa0e9910
DTITLE=Pussycat - 1994 - Single Hit Collection
DYEAR=1994
DGENRE=Vocal
TTITLE0=Mississippi
TTITLE1=Georgie
TTITLE2=Smile
TTITLE3=My Broken Souvenirs
TTITLE4=I'll Be Your Woman
TTITLE5=If You Ever Come To Amsterdam
TTITLE6=It's The Same Old Song
TTITLE7=Wet Day In September
TTITLE8=Hey Joe
TTITLE9=Daddy
TTITLE10=Doin'La Bamba
TTITLE11=Then The Music Stopped
TTITLE12=Une Chambre Pour La Nuit
TTITLE13=Teenage Queenie
TTITLE14=Lovers Of A Kind
TTITLE15=Mississippi [Deutsche Originalaufnahme]
EXTD=YEAR: 1994
EXTT0=
EXTT1=
EXTT2=
EXTT3=
EXTT4=
EXTT5=
EXTT6=
EXTT7=
EXTT8=
EXTT9=
EXTT10=
EXTT11=
EXTT12=
EXTT13=
EXTT14=
EXTT15=
PLAYORDER=
